<svg xmlns="http://www.w3.org/2000/svg" xmlns:xlink="http://www.w3.org/1999/xlink" width="1920" height="600" viewBox="0 0 1920 600"><rect width="100%" height="100%" fill="#DDDDDD"/><path d="M457.17 361.60L486.94 361.60L486.94 382.78L395.34 382.78L395.34 361.60L428.89 361.60L428.89 265.08Q428.89 259.35 429.24 253.28L429.24 253.28L405.42 273.21Q403.36 274.81 401.35 275.21Q399.35 275.61 397.58 275.27Q395.80 274.92 394.43 274.07Q393.05 273.21 392.37 272.18L392.37 272.18L383.44 259.93L433.93 216.99L457.17 216.99L457.17 361.60ZM539.04 266.91L539.04 266.91Q539.04 280.76 546.20 288.03Q553.35 295.31 566.52 295.31L566.52 295.31Q573.39 295.31 578.77 293.13Q584.15 290.95 587.82 287.18Q591.48 283.40 593.37 278.25Q595.26 273.09 595.26 267.14L595.26 267.14Q595.26 260.38 593.20 255.06Q591.14 249.73 587.36 246.07Q583.58 242.41 578.37 240.46Q573.16 238.51 566.98 238.51L566.98 238.51Q560.57 238.51 555.41 240.63Q550.26 242.75 546.60 246.53Q542.93 250.31 540.99 255.52Q539.04 260.73 539.04 266.91ZM525.19 382.78L576.60 318.55Q578.54 316.14 580.26 313.85Q581.98 311.56 583.58 309.27L583.58 309.27Q577.86 312.94 570.99 314.83Q564.12 316.72 556.56 316.72L556.56 316.72Q547.97 316.72 539.73 313.74Q531.48 310.76 525.07 304.75Q518.66 298.74 514.71 289.87Q510.76 280.99 510.76 269.08L510.76 269.08Q510.76 257.98 514.88 248.25Q519.00 238.51 526.45 231.19Q533.89 223.86 544.31 219.62Q554.73 215.38 567.32 215.38L567.32 215.38Q580.03 215.38 590.16 219.39Q600.30 223.40 607.45 230.61Q614.61 237.83 618.45 247.90Q622.28 257.98 622.28 270.00L622.28 270.00Q622.28 277.67 620.97 284.54Q619.65 291.41 617.24 297.77Q614.84 304.12 611.40 310.19Q607.97 316.26 603.73 322.21L603.73 322.21L565.83 376.26Q563.89 379.00 559.99 380.89Q556.10 382.78 551.18 382.78L551.18 382.78L525.19 382.78ZM703.92 356.45L746.40 356.45Q750.98 356.45 753.67 359.02Q756.36 361.60 756.36 365.84L756.36 365.84L756.36 382.78L642.78 382.78L642.78 373.39Q642.78 370.53 643.98 367.38Q645.18 364.23 647.82 361.72L647.82 361.72L698.08 311.34Q704.38 304.92 709.36 299.08Q714.34 293.24 717.66 287.52Q720.98 281.79 722.76 275.90Q724.53 270.00 724.53 263.47L724.53 263.47Q724.53 257.52 722.81 253.00Q721.10 248.47 717.95 245.38Q714.80 242.29 710.39 240.75Q705.98 239.20 700.49 239.20L700.49 239.20Q695.45 239.20 691.15 240.63Q686.86 242.06 683.54 244.64Q680.22 247.22 677.93 250.65Q675.64 254.09 674.49 258.21L674.49 258.21Q672.55 263.47 669.46 265.19Q666.36 266.91 660.53 265.99L660.53 265.99L645.64 263.36Q647.36 251.45 652.28 242.46Q657.20 233.48 664.59 227.46Q671.98 221.45 681.54 218.42Q691.10 215.38 702.09 215.38L702.09 215.38Q713.54 215.38 723.04 218.76Q732.55 222.14 739.30 228.32Q746.06 234.51 749.84 243.21Q753.61 251.91 753.61 262.56L753.61 262.56Q753.61 271.72 750.92 279.50Q748.23 287.29 743.71 294.39Q739.19 301.49 733.12 308.13Q727.05 314.77 720.41 321.64L720.41 321.64L683.08 359.77Q688.46 358.17 693.79 357.31Q699.11 356.45 703.92 356.45L703.92 356.45ZM893.99 300L893.99 300Q893.99 321.64 889.35 337.61Q884.72 353.59 876.53 364.01Q868.34 374.43 857.18 379.52Q846.02 384.62 833.08 384.62L833.08 384.62Q820.14 384.62 809.09 379.52Q798.04 374.43 789.91 364.01Q781.78 353.59 777.20 337.61Q772.62 321.64 772.62 300L772.62 300Q772.62 278.25 777.20 262.33Q781.78 246.41 789.91 235.99Q798.04 225.57 809.09 220.48Q820.14 215.38 833.08 215.38L833.08 215.38Q846.02 215.38 857.18 220.48Q868.34 225.57 876.53 235.99Q884.72 246.41 889.35 262.33Q893.99 278.25 893.99 300ZM864.79 300L864.79 300Q864.79 282.02 862.16 270.23Q859.53 258.44 855.12 251.45Q850.71 244.47 844.98 241.66Q839.26 238.86 833.08 238.86L833.08 238.86Q827.01 238.86 821.34 241.66Q815.67 244.47 811.32 251.45Q806.97 258.44 804.39 270.23Q801.82 282.02 801.82 300L801.82 300Q801.82 317.98 804.39 329.77Q806.97 341.56 811.32 348.55Q815.67 355.53 821.34 358.34Q827.01 361.14 833.08 361.14L833.08 361.14Q839.26 361.14 844.98 358.34Q850.71 355.53 855.12 348.55Q859.53 341.56 862.16 329.77Q864.79 317.98 864.79 300ZM1075.82 344.88L1060.82 359.65L1022.00 320.84L982.84 359.88L967.84 345.11L1007.00 305.84L969.68 268.51L984.56 253.63L1021.89 290.95L1058.99 253.86L1074.10 268.74L1036.89 305.95L1075.82 344.88ZM1252.72 217.22L1203.60 277.33L1197.87 284.43Q1202.68 282.02 1208.24 280.71Q1213.79 279.39 1220.20 279.39L1220.20 279.39Q1229.59 279.39 1238.46 282.48Q1247.34 285.57 1254.09 291.81Q1260.85 298.05 1264.97 307.33Q1269.09 316.60 1269.09 328.97L1269.09 328.97Q1269.09 340.53 1264.86 350.67Q1260.62 360.80 1252.95 368.36Q1245.28 375.91 1234.46 380.26Q1223.64 384.62 1210.58 384.62L1210.58 384.62Q1197.30 384.62 1186.77 380.38Q1176.23 376.14 1168.79 368.53Q1161.35 360.91 1157.40 350.21Q1153.45 339.50 1153.45 326.45L1153.45 326.45Q1153.45 314.77 1158.20 302.46Q1162.95 290.15 1172.91 276.87L1172.91 276.87L1212.42 223.86Q1214.48 221.11 1218.43 219.16Q1222.38 217.22 1227.53 217.22L1227.53 217.22L1252.72 217.22ZM1210.01 361.49L1210.01 361.49Q1216.77 361.49 1222.43 359.20Q1228.10 356.91 1232.17 352.78Q1236.23 348.66 1238.52 343.11Q1240.81 337.56 1240.81 331.03L1240.81 331.03Q1240.81 323.93 1238.64 318.26Q1236.46 312.60 1232.45 308.64Q1228.45 304.69 1222.83 302.63Q1217.22 300.57 1210.47 300.57L1210.47 300.57Q1203.71 300.57 1198.22 302.86Q1192.72 305.15 1188.83 309.22Q1184.94 313.28 1182.76 318.84Q1180.58 324.39 1180.58 330.80L1180.58 330.80Q1180.58 337.67 1182.47 343.34Q1184.36 349.01 1188.08 353.01Q1191.81 357.02 1197.30 359.25Q1202.80 361.49 1210.01 361.49ZM1403.74 300L1403.74 300Q1403.74 321.64 1399.11 337.61Q1394.47 353.59 1386.28 364.01Q1378.10 374.43 1366.93 379.52Q1355.77 384.62 1342.83 384.62L1342.83 384.62Q1329.89 384.62 1318.84 379.52Q1307.79 374.43 1299.66 364.01Q1291.53 353.59 1286.95 337.61Q1282.37 321.64 1282.37 300L1282.37 300Q1282.37 278.25 1286.95 262.33Q1291.53 246.41 1299.66 235.99Q1307.79 225.57 1318.84 220.48Q1329.89 215.38 1342.83 215.38L1342.83 215.38Q1355.77 215.38 1366.93 220.48Q1378.10 225.57 1386.28 235.99Q1394.47 246.41 1399.11 262.33Q1403.74 278.25 1403.74 300ZM1374.55 300L1374.55 300Q1374.55 282.02 1371.91 270.23Q1369.28 258.44 1364.87 251.45Q1360.46 244.47 1354.74 241.66Q1349.01 238.86 1342.83 238.86L1342.83 238.86Q1336.76 238.86 1331.09 241.66Q1325.43 244.47 1321.08 251.45Q1316.72 258.44 1314.15 270.23Q1311.57 282.02 1311.57 300L1311.57 300Q1311.57 317.98 1314.15 329.77Q1316.72 341.56 1321.08 348.55Q1325.43 355.53 1331.09 358.34Q1336.76 361.14 1342.83 361.14L1342.83 361.14Q1349.01 361.14 1354.74 358.34Q1360.46 355.53 1364.87 348.55Q1369.28 341.56 1371.91 329.77Q1374.55 317.98 1374.55 300ZM1536.56 300L1536.56 300Q1536.56 321.64 1531.93 337.61Q1527.29 353.59 1519.10 364.01Q1510.92 374.43 1499.75 379.52Q1488.59 384.62 1475.65 384.62L1475.65 384.62Q1462.71 384.62 1451.66 379.52Q1440.61 374.43 1432.48 364.01Q1424.35 353.59 1419.77 337.61Q1415.19 321.64 1415.19 300L1415.19 300Q1415.19 278.25 1419.77 262.33Q1424.35 246.41 1432.48 235.99Q1440.61 225.57 1451.66 220.48Q1462.71 215.38 1475.65 215.38L1475.65 215.38Q1488.59 215.38 1499.75 220.48Q1510.92 225.57 1519.10 235.99Q1527.29 246.41 1531.93 262.33Q1536.56 278.25 1536.56 300ZM1507.37 300L1507.37 300Q1507.37 282.02 1504.73 270.23Q1502.10 258.44 1497.69 251.45Q1493.28 244.47 1487.56 241.66Q1481.83 238.86 1475.65 238.86L1475.65 238.86Q1469.58 238.86 1463.91 241.66Q1458.25 244.47 1453.90 251.45Q1449.54 258.44 1446.97 270.23Q1444.39 282.02 1444.39 300L1444.39 300Q1444.39 317.98 1446.97 329.77Q1449.54 341.56 1453.90 348.55Q1458.25 355.53 1463.91 358.34Q1469.58 361.14 1475.65 361.14L1475.65 361.14Q1481.83 361.14 1487.56 358.34Q1493.28 355.53 1497.69 348.55Q1502.10 341.56 1504.73 329.77Q1507.37 317.98 1507.37 300Z" fill="#999999"/></svg>